<svg width="885" height="183" viewBox="0 0 885 183" fill="none" xmlns="http://www.w3.org/2000/svg">
<path d="M639.369 57.1557C637.781 58.5125 637.308 59.5188 636.399 61.582C638.417 62.5123 639.306 62.5762 641.349 61.877M639.369 57.1557C639.041 59.3616 638.874 60.6967 641.349 61.877M639.369 57.1557L641.349 61.877" stroke="black"/>
<path d="M644.318 86.6639C638.675 88.2446 635.852 90.1032 631.45 95.2213C627.698 99.5993 626.053 102.55 624.026 108.795C623.028 118.934 620.482 121.548 616.602 130.041L612.89 135.648L615.612 160.139L620.561 173.123L624.026 175.189L625.263 177.844L624.026 180.5H611.652C603.33 169.955 598.612 163.799 590.122 152.467M590.122 152.467L581.461 175.189L583.193 180.5H576.264L571.809 177.844L568.592 173.123L567.85 149.221M590.122 152.467L567.85 149.221M567.85 149.221C556.205 149.527 549.85 148.176 538.896 142.434C538.814 151.171 538.708 156.029 535.679 162.795V169.877L538.896 176.369L540.628 177.844V180.5H525.285L519.098 177.844L506.725 156.008M506.725 156.008L485.69 180.5L472.326 179.615L491.629 125.91M506.725 156.008L491.629 125.91M491.629 125.91L488.659 109.385C454.006 92.5955 448.598 75.434 451.786 36.5C460.146 20.5141 466.827 12.1 478.266 3.15574L481.483 0.5H484.205H486.68L488.659 3.15574L489.649 7.58197L488.659 10.5328L482.968 14.6639C462.378 33.0652 460.846 45.7474 464.407 66.5984C471.263 82.4107 478.815 88.105 497.568 93.7459L506.725 89.0246L517.613 87.2541L535.431 93.7459C557.672 99.7487 570.232 99.458 592.844 90.5" stroke="black"/>
<path d="M592.349 90.7951L596.556 86.3688L598.289 79.5819V66.8934C601.047 55.5836 604.433 51.2515 612.147 45.3524M612.147 45.3524C609.986 36.9402 610.396 32.2237 612.147 23.8115C614.895 28.3891 616.7 30.6327 620.809 33.5492M612.147 45.3524L616.849 43.2869L620.809 33.5492M620.809 33.5492L625.263 26.1721L632.935 46.5328L639.616 48.3033L648.278 66.8934M648.278 66.8934L651 70.1393M648.278 66.8934H651V70.1393M651 70.1393L644.071 86.6639" stroke="black"/>
<path d="M639.765 59.3094C639.765 59.2899 639.755 59.2139 639.731 59.1584C639.715 59.1221 639.682 59.0741 639.666 59.0166C639.652 58.9633 639.635 58.9353 639.621 58.902C639.607 58.8644 639.58 58.825 639.564 58.7953C639.547 58.7651 639.54 58.7327 639.527 58.7132C639.508 58.6852 639.561 58.8618 639.625 59.0488C639.678 59.2032 639.716 59.2803 639.746 59.3637C639.757 59.3935 639.766 59.4253 639.773 59.4509C639.792 59.5239 639.699 59.2508 639.647 59.1228C639.624 59.0683 639.607 59.0065 639.588 58.9518C639.574 58.9068 639.565 58.8664 639.559 58.833C639.552 58.801 639.543 58.7704 639.532 58.7391C639.521 58.706 639.515 58.6771 639.512 58.6744C639.461 58.6273 639.535 58.8425 639.573 58.9547C639.638 59.1519 639.697 59.2777 639.707 59.307C639.723 59.355 639.743 59.4041 639.77 59.493C639.792 59.5606 639.823 59.6754 639.843 59.7413C639.867 59.8217 639.901 59.9148 639.948 60.0428C639.987 60.1504 640.031 60.1991 640.048 60.2318C640.065 60.2646 640.113 60.3243 640.151 60.3665C640.187 60.4064 640.22 60.4451 640.253 60.477C640.313 60.5332 640.338 60.5963 640.363 60.6275C640.402 60.6762 640.427 60.7483 640.442 60.7802C640.452 60.7941 640.462 60.8086 640.472 60.8233C640.477 60.8305 640.482 60.837 640.493 60.8528" stroke="black" stroke-width="2" stroke-linecap="round"/>
<path d="M420.369 57.1557C418.781 58.5125 418.308 59.5188 417.399 61.582C419.417 62.5123 420.306 62.5762 422.349 61.877M420.369 57.1557C420.041 59.3616 419.874 60.6967 422.349 61.877M420.369 57.1557L422.349 61.877" stroke="black"/>
<path d="M425.318 86.6639C419.675 88.2446 416.852 90.1032 412.45 95.2213C408.698 99.5993 409.684 109.385 409.684 109.385C409.684 109.385 407.578 123.899 415.128 143.32L407.704 173.123H401.517L395.578 167.516L397.558 149.221L387.411 142.434L372 149.221M372 149.221L362.461 175.189L364.193 180.5H357.264L352.809 177.844L349.592 173.123L348.85 149.221M372 149.221H348.85M348.85 149.221C337.205 149.527 334.954 148.176 324 142.434V156L319.896 176.369L310.5 177.844L305.5 159.5L297.568 152.467M297.568 152.467C287.912 144.708 282.854 139.795 274.5 130M297.568 152.467C290.257 154.938 288.203 163.2 281.5 167.516C278.309 172.729 271.764 175.594 272.5 180.5H263L267.68 156L270.649 143.32L274.5 130M274.5 130L269.659 109.385C235.006 92.5955 229.598 75.434 232.786 36.5C241.146 20.5141 247.827 12.1 259.266 3.15574L262.483 0.5H265.205H267.68L269.659 3.15574L270.649 7.58197L269.659 10.5328L263.968 14.6639C243.378 33.0652 241.846 45.7474 245.407 66.5984C252.263 82.4107 259.815 88.105 278.568 93.7459L287.725 89.0246L298.613 87.2541L316.431 93.7459C338.672 99.7487 351.232 99.458 373.844 90.5" stroke="black"/>
<path d="M373.349 90.7951L377.556 86.3688L379.289 79.5819V66.8934C382.047 55.5836 385.433 51.2515 393.147 45.3524M393.147 45.3524C390.986 36.9402 391.396 32.2237 393.147 23.8115C395.895 28.3891 397.7 30.6327 401.809 33.5492M393.147 45.3524L397.849 43.2869L401.809 33.5492M401.809 33.5492L406.263 26.1721L413.935 46.5328L420.616 48.3033L429.278 66.8934M429.278 66.8934L432 70.1393M429.278 66.8934H432V70.1393M432 70.1393L425.071 86.6639" stroke="black"/>
<path d="M420.765 59.3094C420.765 59.2899 420.755 59.2139 420.731 59.1584C420.715 59.1221 420.682 59.0741 420.666 59.0166C420.651 58.9633 420.635 58.9353 420.621 58.902C420.607 58.8644 420.58 58.825 420.564 58.7953C420.547 58.7651 420.54 58.7327 420.527 58.7132C420.508 58.6852 420.561 58.8618 420.625 59.0488C420.678 59.2032 420.716 59.2803 420.746 59.3637C420.757 59.3935 420.766 59.4253 420.773 59.4509C420.792 59.5239 420.699 59.2508 420.647 59.1228C420.624 59.0683 420.606 59.0065 420.588 58.9518C420.574 58.9068 420.565 58.8664 420.559 58.833C420.552 58.801 420.542 58.7704 420.532 58.7391C420.521 58.706 420.515 58.6771 420.512 58.6744C420.461 58.6273 420.535 58.8425 420.573 58.9547C420.638 59.1519 420.697 59.2777 420.707 59.307C420.723 59.355 420.743 59.4041 420.77 59.493C420.791 59.5606 420.823 59.6754 420.843 59.7413C420.866 59.8217 420.901 59.9148 420.947 60.0428C420.986 60.1504 421.031 60.1991 421.048 60.2318C421.065 60.2646 421.113 60.3243 421.151 60.3665C421.187 60.4064 421.22 60.4451 421.253 60.477C421.313 60.5332 421.338 60.5963 421.363 60.6275C421.402 60.6762 421.427 60.7483 421.442 60.7802C421.451 60.7941 421.462 60.8086 421.472 60.8233C421.477 60.8305 421.482 60.837 421.493 60.8528" stroke="black" stroke-width="2" stroke-linecap="round"/>
<path d="M811.54 90.4836L815.733 86.0574L817.46 79.2705V66.582C820.209 55.2721 823.584 50.9401 831.273 45.041M831.273 45.041C829.119 36.6287 829.527 31.9123 831.273 23.5C834.012 28.0776 835.811 30.3212 839.906 33.2377M831.273 45.041L835.96 42.9754L839.906 33.2377M839.906 33.2377L844.346 25.8607L851.993 46.2213L858.653 47.9918L867.287 66.582M867.287 66.582L870 69.8279M867.287 66.582H870V69.8279M870 69.8279L863.093 86.3525" stroke="black"/>
<path d="M862.692 86.6639C857.067 88.2446 854.253 90.1032 849.865 95.2213C846.125 99.5993 844.486 102.55 842.465 108.795C841.47 118.934 838.933 121.548 835.065 130.041L831.365 135.648L834.078 160.139L839.011 173.123L842.465 175.189L843.698 177.844L842.465 180.5H830.131C821.836 169.955 817.133 163.799 808.671 152.467M808.671 152.467L786.471 149.221M808.671 152.467L800.038 162.795V175.189L794.595 177.844L787.211 173.123L781.637 156.008L786.471 149.221M786.471 149.221C774.864 149.527 768.529 148.176 757.611 142.434C757.529 151.171 757.424 156.029 754.404 162.795V169.877L757.611 176.369L759.338 177.844V180.5H744.044L737.877 177.844L725.544 156.008M725.544 156.008L710.497 125.91M725.544 156.008L714.356 162.795V175.189H701.864L696.912 142.434L710.497 125.91M710.497 125.91L707.537 109.385C672.996 92.5955 667.605 75.434 670.784 36.5C679.116 20.5141 685.775 12.1 697.177 3.15574L700.384 0.5H703.097H705.564L707.537 3.15574L708.524 7.58197L707.537 10.5328L701.864 14.6639C681.341 33.0652 679.815 45.7474 683.364 66.5984C690.197 82.4107 697.725 88.105 716.417 93.7459L725.544 89.0246L736.397 87.2541L754.158 93.7459C776.326 99.7487 788.846 99.458 811.385 90.5" stroke="black"/>
<path d="M855.367 56.5C853.784 57.8568 853.313 58.8631 852.407 60.9262C854.418 61.8566 855.304 61.9204 857.34 61.2213M855.367 56.5C855.04 58.7059 854.873 60.041 857.34 61.2213M855.367 56.5L857.34 61.2213" stroke="black"/>
<path d="M56.9156 102.554C63.6997 97.5933 79.5291 95.8427 91.0871 100.511" stroke="black"/>
<path d="M91.0871 100.511C114.316 107.764 141.339 105.471 156.917 94.3838" stroke="black"/>
<path d="M156.666 94.6756L158.676 90.299L159.933 80.9622C161.681 70.632 165.777 60.3581 173.501 55.2859" stroke="black"/>
<path d="M56.9156 102.554C12.5516 80.3393 20.3791 55.8502 50.383 6.26764" stroke="black"/>
<path d="M51.3879 117.434C-3.6227 85.0014 8.38925 56.2167 38.3223 3.34987C41.5887 2.47459 46.6139 1.01568 50.1316 6.55943" stroke="black"/>
<path d="M165.712 150.405C173.58 143.699 178.532 138.704 185.31 122.686" stroke="black"/>
<path d="M185.31 122.978C188.794 105.73 192.609 98.7962 206.667 94.9674" stroke="black"/>
<path d="M206.416 94.9674C207.865 88.0161 209.621 85.0129 212.697 79.2115" stroke="black"/>
<path d="M212.446 79.2115C206.827 72.2261 204.495 68.0473 201.139 57.9119" stroke="black"/>
<path d="M201.391 57.9119C197.705 57.7729 196.337 57.5187 195.109 56.7448L190.586 46.2409L186.818 36.0287C181.53 41.9985 179.372 46.0764 177.018 54.7024" stroke="black"/>
<path d="M173.501 55.2859C169.617 47.1926 170.204 42.7666 170.988 34.8616C175.311 39.9436 177.693 42.4009 181.792 45.3655" stroke="black"/>
<path d="M212.446 79.5033C212.446 79.5033 213.2 77.4609 212.949 76.8773C212.697 76.2938 211.944 76.2938 211.944 76.2938L210.436 76.5855" stroke="black"/>
<path d="M200.888 66.3734C199.276 67.7149 198.796 68.71 197.873 70.75C199.921 71.6699 200.825 71.7331 202.898 71.0418M200.888 66.3734C200.556 68.5545 200.386 69.8747 202.898 71.0418M200.888 66.3734L202.898 71.0418" stroke="black"/>
<path d="M201.344 68.4084C201.344 68.4115 201.344 68.5787 201.344 68.7643C201.344 68.6543 201.329 68.4778 201.298 68.3947C201.281 68.3539 201.264 68.3158 201.231 68.2143" stroke="black" stroke-width="2" stroke-linecap="round"/>
<path d="M201.075 67.4278C201.075 67.6351 201.098 68.1438 201.292 68.7903C201.385 69.0993 201.519 69.2243 201.592 69.3959C201.625 69.478 201.664 69.551 201.713 69.6098C201.74 69.6359 201.772 69.6546 201.821 69.7257" stroke="black" stroke-width="2" stroke-linecap="round"/>
<path d="M202.029 69.8773C202.029 69.8783 202.029 69.8794 202.037 69.8907C202.044 69.9019 202.059 69.9234 202.074 69.9419C202.089 69.9604 202.103 69.9754 202.13 70.0083" stroke="black" stroke-width="2" stroke-linecap="round"/>
<path d="M51 116.5L47 140L45.5 158.5L43.5 178L51 180L55 178V175.5L52.5 173L49.5 174L62.5 156L70.25 146.25M82 140L70.25 146.25M70.25 146.25L82 178H93L95.5 175.5V173L93 171L90.5 173L95.5 150" stroke="black"/>
<path d="M176 139.5L183.5 173.5L188.5 175.5V179.5L181.5 180.5H171.75" stroke="black"/>
<path d="M153.5 180.5V173.5L156 161.5M171.75 180.5L156 161.5M156 161.5L162 150.5H166" stroke="black"/>
<path d="M152.5 180.5H143.5L137 173.5V150.5C113.571 151.562 103.374 151.891 81 147.5" stroke="black"/>
</svg>
